<?xml version="1.0" encoding="UTF-8"?>
<svg width="34px" height="85px" viewBox="0 0 34 85" version="1.1" xmlns="http://www.w3.org/2000/svg" xmlns:xlink="http://www.w3.org/1999/xlink">
    <!-- Generator: Sketch 46.1 (44463) - http://www.bohemiancoding.com/sketch -->
    <title>logo</title>
    <desc>Created with Sketch.</desc>
    <defs></defs>
    <g id="Page-1" stroke="none" stroke-width="1" fill="none" fill-rule="evenodd">
        <g id="logo" fill-rule="nonzero" fill="#FFFFFF">
            <path d="M28.764,15.236 L28.764,45.9266667 C28.764,45.9266667 28.288,46.8106667 27.9933333,47.3093333 C27.1176137,48.7754179 26.1485021,50.1836582 25.092,51.5253333 C22.2586667,55.0386667 19.4253333,57.0786667 17,57.0786667 C14.5746667,57.0786667 11.7186667,55.0386667 8.908,51.5253333 C7.83645905,50.1845878 6.85220766,48.7763512 5.96133333,47.3093333 C5.66666667,46.8106667 5.19066667,45.9266667 5.19066667,45.9266667 L5.19066667,15.236 L28.764,15.236 Z M1.25082473e-14,12.6066667 L1.25082473e-14,46.6066667 C-0.00134370102,47.0152632 0.0917442578,47.4186444 0.272,47.7853333 C0.498666667,48.2386667 0.929333333,49.0093333 1.496,50.052 C2.50564081,51.7089124 3.61061041,53.3058205 4.80533333,54.8346667 C8.52266667,59.4813333 12.5573333,62.36 17,62.36 C21.4426667,62.36 25.4546667,59.4813333 29.172,54.8346667 C30.3742322,53.3113594 31.4795226,51.7139876 32.4813333,50.052 C33.0706667,49.0546667 33.4786667,48.284 33.7053333,47.7853333 C33.8926696,47.4202498 33.9934926,47.0169575 34,46.6066667 L34,12.6066667 C33.9875575,11.1633856 32.8140013,9.99994637 31.3706667,10 L2.60666667,10 C1.16704442,10 1.25082473e-14,11.1670444 1.25082473e-14,12.6066667 L1.25082473e-14,12.6066667 Z" id="Shape"></path>
            <path d="M19.5613333,31.66 L30.0106667,31.66 C31.0041496,31.567458 31.9644116,32.0452272 32.4898131,32.8934758 C33.0152146,33.7417243 33.0152146,34.8142757 32.4898131,35.6625242 C31.9644116,36.5107728 31.0041496,36.988542 30.0106667,36.896 L19.5613333,36.896 L19.5613333,59.1093333 C19.6538753,60.1028163 19.1761061,61.0630782 18.3278576,61.5884798 C17.479609,62.1138813 16.4070577,62.1138813 15.5588091,61.5884798 C14.7105605,61.0630782 14.2327913,60.1028163 14.3253333,59.1093333 L14.3253333,36.896 L3.92133333,36.896 C2.92785037,36.988542 1.96758844,36.5107728 1.4421869,35.6625242 C0.916785353,34.8142757 0.916785353,33.7417243 1.4421869,32.8934758 C1.96758844,32.0452272 2.92785037,31.567458 3.92133333,31.66 L14.3706667,31.66 L14.3706667,14.66 C14.4965864,13.3081915 15.6310062,12.2745309 16.9886667,12.2745309 C18.3463271,12.2745309 19.480747,13.3081915 19.6066667,14.66 L19.6066667,31.66 L19.5613333,31.66 Z" id="Shape"></path>
            <path d="M19.5613333,2.896 C19.6538753,1.90251704 19.1761061,0.942255108 18.3278576,0.416853564 C17.479609,-0.10854798 16.4070577,-0.10854798 15.5588091,0.416853564 C14.7105605,0.942255108 14.2327913,1.90251704 14.3253333,2.896 L14.3253333,5.50266667 C14.451253,6.85447514 15.5856729,7.88813574 16.9433333,7.88813574 C18.3009938,7.88813574 19.4354136,6.85447514 19.5613333,5.50266667 L19.5613333,2.896 Z" id="Shape"></path>
            <path d="M19.5613333,66.3854691 C19.4354136,65.0336606 18.3009938,64 16.9433333,64 C15.5856729,64 14.451253,65.0336606 14.3253333,66.3854691 L14.3253333,82.0934691 C14.451253,83.4452775 15.5856729,84.4789381 16.9433333,84.4789381 C18.3009938,84.4789381 19.4354136,83.4452775 19.5613333,82.0934691 L19.5613333,66.3854691 Z" id="Shape"></path>
        </g>
    </g>
</svg>