<?xml version="1.0" encoding="UTF-8"?>
<svg width="80px" height="80px" viewBox="0 0 80 80" version="1.1" xmlns="http://www.w3.org/2000/svg" xmlns:xlink="http://www.w3.org/1999/xlink">
    <!-- Generator: Sketch 46.1 (44463) - http://www.bohemiancoding.com/sketch -->
    <title>scroll_top</title>
    <desc>Created with Sketch.</desc>
    <defs></defs>
    <g id="Page-1" stroke="none" stroke-width="1" fill="none" fill-rule="evenodd">
        <g id="scroll_top" fill-rule="nonzero" fill="#A7A37E">
            <g id="21Artboard-1">
                <path d="M40,0.0273660205 C17.9338655,0.0273660205 0.0456100342,17.9156214 0.0456100342,39.981756 C0.0456100342,62.0478905 17.9338655,79.936146 40,79.936146 C62.0661345,79.936146 79.95439,62.0478905 79.95439,39.981756 C79.95439,17.9156214 62.0661345,0.0273660205 40,0.0273660205 Z M57.8946408,48.790878 C57.0396849,49.6457772 55.6535876,49.6457772 54.7986317,48.790878 L40,33.9922463 L25.2013683,48.790878 C24.6498443,49.3514589 23.8400284,49.5731676 23.0798717,49.3716943 C22.319715,49.170221 21.7260161,48.5765222 21.5245428,47.8163655 C21.3230695,47.0562088 21.5447783,46.2463929 22.1053592,45.6948689 L38.4519954,29.3482326 C39.3069514,28.4933334 40.6930486,28.4933334 41.5480046,29.3482326 L57.8946408,45.6948689 C58.74954,46.5498248 58.74954,47.9359221 57.8946408,48.790878 L57.8946408,48.790878 Z" id="Shape"></path>
            </g>
        </g>
    </g>
</svg>