<?xml version="1.0" encoding="UTF-8"?>
<svg width="20px" height="20px" viewBox="0 0 20 20" version="1.1" xmlns="http://www.w3.org/2000/svg" xmlns:xlink="http://www.w3.org/1999/xlink">
    <!-- Generator: Sketch 46.1 (44463) - http://www.bohemiancoding.com/sketch -->
    <title>star_outline</title>
    <desc>Created with Sketch.</desc>
    <defs></defs>
    <g id="Page-1" stroke="none" stroke-width="1" fill="none" fill-rule="evenodd">
        <g id="star_outline" stroke="#D6D6D6" stroke-width="2" fill-rule="nonzero">
            <path d="M10.0128956,3.06678752 C9.78910333,3.70782052 8.82686623,6.45357642 8.35952876,7.70562233 L8.12800084,8.32590983 L7.46654977,8.35496582 C6.14915983,8.41283566 3.27258471,8.47846757 2.51345477,8.49330711 C3.12555597,8.95791882 5.39248103,10.6899139 6.41759462,11.5079682 L6.93165961,11.9181988 L6.75861075,12.5527113 C6.41092281,13.8275671 5.59127322,16.5989763 5.37531121,17.3200388 C5.99814231,16.886499 8.37107116,15.2474545 9.46881196,14.5235573 L10.0193018,14.1605408 L10.5698088,14.5235313 C11.6859981,15.2595187 14.0832635,16.9111474 14.6414211,17.2969013 C14.4494257,16.6557623 13.6138855,13.8493294 13.2571685,12.5553559 L13.0817796,11.9191414 L13.5977801,11.5077124 C14.6307177,10.6841077 16.9140591,8.94012646 17.4989264,8.49595155 C16.7647092,8.48060759 13.8938691,8.41332922 12.5718828,8.3549558 L11.9123553,8.32583381 L11.6799883,7.70790972 C11.2086052,6.45437969 10.2369484,3.70351119 10.0128956,3.06678752 Z" id="Shape"></path>
        </g>
    </g>
</svg>